<?xml version="1.0" encoding="UTF-8" standalone="no"?>
<svg
   xmlns:dc="http://purl.org/dc/elements/1.1/"
   xmlns:cc="http://creativecommons.org/ns#"
   xmlns:rdf="http://www.w3.org/1999/02/22-rdf-syntax-ns#"
   xmlns:svg="http://www.w3.org/2000/svg"
   xmlns="http://www.w3.org/2000/svg"
   xmlns:sodipodi="http://sodipodi.sourceforge.net/DTD/sodipodi-0.dtd"
   xmlns:inkscape="http://www.inkscape.org/namespaces/inkscape"
   width="250"
   height="250"
   viewBox="0 0 250 250"
   version="1.1"
   id="svg8"
   inkscape:version="1.0.2 (e86c870879, 2021-01-15)"
   sodipodi:docname="maintenance.svg">
  <defs
     id="defs2" />
  <sodipodi:namedview
     id="base"
     pagecolor="#ffffff"
     bordercolor="#666666"
     borderopacity="1.0"
     inkscape:pageopacity="0.0"
     inkscape:pageshadow="2"
     inkscape:zoom="0.95008575"
     inkscape:cx="148.66371"
     inkscape:cy="242.13224"
     inkscape:document-units="px"
     inkscape:current-layer="g1126"
     showgrid="false"
     units="px"
     inkscape:window-width="1364"
     inkscape:window-height="744"
     inkscape:window-x="0"
     inkscape:window-y="0"
     inkscape:window-maximized="0"
     inkscape:snap-global="false"
     inkscape:document-rotation="0" />
  <metadata
     id="metadata5">
    <rdf:RDF>
      <cc:Work
         rdf:about="">
        <dc:format>image/svg+xml</dc:format>
        <dc:type
           rdf:resource="http://purl.org/dc/dcmitype/StillImage" />
        <dc:title></dc:title>
      </cc:Work>
    </rdf:RDF>
  </metadata>
  <g
     inkscape:label="Layer 1"
     inkscape:groupmode="layer"
     id="layer1"
     transform="translate(0,-93.799984)">
    <g
       id="g831">
      <text
         xml:space="preserve"
         style="font-style:normal;font-weight:normal;font-size:10.5833px;line-height:1.25;font-family:sans-serif;letter-spacing:0px;word-spacing:0px;fill:#000000;fill-opacity:1;stroke:none;stroke-width:0.264583"
         x="174.625"
         y="196.45831"
         id="text863" />
      <g
         id="g1128"
         transform="translate(640.34464,-350.24823)">
        <g
           id="g1923"
           transform="matrix(0.63564709,0,0,0.63564709,-687.57322,400.95134)">
          <path
             fill="#ec4f4b"
             d="M 424,461.1 H 117.9 c -24.1,0 -43.6,-19.5 -43.6,-43.6 V 111.4 c 0,-24.1 19.5,-43.6 43.6,-43.6 H 424 c 24.1,0 43.6,19.5 43.6,43.6 v 306.1 c 0,24.1 -19.5,43.6 -43.6,43.6 z"
             id="path1110"
             style="fill:#fcdd09;fill-opacity:1" />
          <path
             fill="#c7423e"
             d="m 359.1,152.6 -62.6,79.7 -79.3,-79.3 -4.1,50.4 13.3,48 18.5,46.7 -75.1,95.5 67.5,67.5 H 424 c 24.1,0 43.6,-19.5 43.6,-43.6 V 261.1 Z"
             id="path1112"
             style="fill:#d2b703;fill-opacity:1" />
          <g
             id="g1126">
            <path
               fill="#abb7b7"
               d="m 347,214 0.5,-0.5 c -0.3,0.3 -0.5,0.5 -0.5,0.5 z"
               id="path1114" />
            <path
               fill="#363636"
               d="m 347,214 v 0 c 0,0 0.2,-0.2 0.5,-0.5 3,-2.9 17.7,-16.2 28.8,-6.2 12.3,11.1 5.9,33 -0.1,43.2 l 7.5,7.5 c 0,0 38.8,-41.9 -9.3,-90 -1.5,-2.1 -15.4,-15.4 -15.4,-15.4 0,0 -6.4,1.6 -11.2,-3.3 C 343,144.5 335.5,137 335.5,137 l -1.2,-7.9 -14.5,-14.5 -24.8,24.8 14.5,14.5 7.8,1.2 12.9,12.9 c 0,0 11.3,11.5 -3.2,26 z"
               id="path1116"
               style="fill:#05571f;fill-opacity:1" />
            <path
               fill="#3d519b"
               d="m 204.8,349.1 c -3.5,3.5 -9.3,3.5 -12.8,0 v 0 c -3.5,-3.5 -3.5,-9.3 0,-12.8 l 50.4,-50.4 -7.2,-7.2 -85.3,83.8 c -3.1,3.1 -4.2,7.1 -2.3,8.9 l 22.2,22.2 c 1.8,1.8 5.8,0.8 8.9,-2.3 l 83.8,-85.3 -7.2,-7.2 z"
               id="path1118"
               style="fill:#05571f;fill-opacity:1" />
            <path
               fill="#d2d6ce"
               d="m 192,349.1 v 0 c 3.5,3.5 9.3,3.5 12.8,0 L 255.2,298.7 242.4,286 192,336.4 c -3.5,3.5 -3.5,9.2 0,12.7 z"
               id="path1120" />
            <path
               fill="#abb7b7"
               d="M 390.2,326 C 377.4,313.2 359.4,308.8 343,312.7 L 295.7,265.4 347,214 327.1,194.1 275.7,245.5 230.4,200.2 c 4,-16.4 -0.5,-34.4 -13.3,-47.2 -13.7,-13.7 -33.4,-17.8 -50.7,-12.3 l 25.6,25.6 c 5.3,5.3 5.3,13.9 0,19.2 l -13.3,13.3 c -5.3,5.3 -13.9,5.3 -19.2,0 L 134,173.2 c -5.5,17.3 -1.4,37 12.3,50.7 12.8,12.8 30.8,17.2 47.2,13.3 l 41.6,41.6 7.2,7.2 12.8,12.8 7.2,7.2 43.7,43.7 c -4,16.4 0.5,34.4 13.3,47.2 13.7,13.7 33.4,17.8 50.7,12.3 l -25.6,-25.6 c -5.3,-5.3 -5.3,-13.9 0,-19.2 l 13.3,-13.3 c 5.3,-5.3 13.9,-5.3 19.2,0 l 25.6,25.6 c 5.5,-17.3 1.4,-37 -12.3,-50.7 z m -85.5,3.8 -87.8,-87.8 c -5.1,-5.1 -5.1,-13.3 0,-18.4 v 0 c 5.1,-5.1 13.3,-5.1 18.4,0 l 87.8,87.8 c 5.1,5.1 5.1,13.3 0,18.4 v 0 c -5.1,5.1 -13.3,5.1 -18.4,0 z"
               id="path1122" />
            <path
               fill="#d2d6ce"
               d="m 323.1,329.8 v 0 c 5.1,-5.1 5.1,-13.3 0,-18.4 l -87.8,-87.8 c -5.1,-5.1 -13.3,-5.1 -18.4,0 v 0 c -5.1,5.1 -5.1,13.3 0,18.4 l 87.8,87.8 c 5.1,5.1 13.3,5.1 18.4,0 z"
               id="path1124" />
          </g>
        </g>
      </g>
    </g>
  </g>
</svg>
